<svg xmlns="http://www.w3.org/2000/svg" xmlns:xlink="http://www.w3.org/1999/xlink" width="225" height="178" viewBox="0 0 225 178">
  <g transform="translate(-554 -169)">
    <g class="b">
      <path class="c" fill="currentcolor" d="M-55.855,339.04a757.25,757.25,0,0,1,50.612-108.2c6.721-11.834,14.043-23.8,24.987-31.9,33.8-24.994,80.881-2.451,122.921-2.605,42.945-.159,84.52-27.979,101.047-67.616s7.032-88.752-23.078-119.372C183.9-28,126.5-34.329,74.1-34.506c-31.173-.1-63.814,1.6-90.732,17.315C-64.827,10.952-78.953,73.137-85.79,128.524c-4.736,38.377-8.108,78.07,3.044,115.095,9.232,30.656,28.4,60.613,22.57,92.1" transform="translate(490.226 118.933)"/>
      <path class="d" fill="none" stroke="currentcolor"  stroke-width="3" d="M-3.579,116.566s106.928,33.328,158.308-73.6" transform="translate(597.494 214.847)"/>
    </g>
  </g>
</svg>