<svg xmlns="http://www.w3.org/2000/svg" xmlns:xlink="http://www.w3.org/1999/xlink" width="265" height="183" viewBox="0 0 265 183">
  <defs>

  </defs>
  <g class="b" transform="translate(-554 -676)">
    <path class="c" fill="currentcolor" d="M-50.772,240.26c4.013,24.4,33.442,35.709,58.152,34.8,60.11-2.225,117.386-47.613,175.377-31.638,45.019,12.4,71.944,57.16,94.3,98.156l38.209,70.058c7.164,13.132,14.135,30.11,5.026,41.978-4.416,5.754-11.575,8.549-18.369,11.082l-181.854,67.8c-7.629,2.844-15.9,5.725-23.736,3.509-8.413-2.379-14.106-9.988-19.157-17.125L8.834,422.31c-15.713-22.2-31.616-44.757-40.8-70.362s-10.964-55.088,1.358-79.339" transform="translate(499.07 478.793)"/>
    <path class="d" stroke="currentcolor" fill="none" stroke-width="3" d="M16.685,242.9s62.979-30.656,108.983,6.26" transform="translate(582.581 467.577)"/>
    </g>
</svg>