<svg fill="none" height="24" viewBox="0 0 24 24" width="24" xmlns="http://www.w3.org/2000/svg">
  <g stroke="currentColor" stroke-linecap="round" stroke-linejoin="round" stroke-width="2">
    <path d="m16 4h2c.5304 0 1.0391.21071 1.4142.58579.3751.37507.5858.88378.5858 1.41421v14c0 .5304-.2107 1.0391-.5858 1.4142s-.8838.5858-1.4142.5858h-12c-.53043 0-1.03914-.2107-1.41421-.5858-.37508-.3751-.58579-.8838-.58579-1.4142v-14c0-.53043.21071-1.03914.58579-1.41421.37507-.37508.88378-.58579 1.41421-.58579h2"/>
    <path d="m15 2h-6c-.55228 0-1 .44772-1 1v2c0 .55228.44772 1 1 1h6c.5523 0 1-.44772 1-1v-2c0-.55228-.4477-1-1-1z"/>
  </g>
</svg>