<svg fill="none" height="200" viewBox="0 0 200 200" width="200" xmlns="http://www.w3.org/2000/svg" xmlns:xlink="http://www.w3.org/1999/xlink"><linearGradient id="a"><stop offset="0" stop-color="#4f4a72"/><stop offset="1" stop-color="#3b395f"/></linearGradient><linearGradient id="b" gradientUnits="userSpaceOnUse" x1="81.3878" x2="118.612" xlink:href="#a" y1="165.517" y2="165.517"/><linearGradient id="c"><stop offset="0" stop-color="#a34a9e"/><stop offset=".1962" stop-color="#a04d90"/><stop offset=".5665" stop-color="#97566b"/><stop offset="1" stop-color="#8c6239"/></linearGradient><linearGradient id="d" gradientUnits="userSpaceOnUse" x1="99.7396" x2="103.233" xlink:href="#c" y1="169.937" y2="199.978"/><linearGradient id="e"><stop offset="0" stop-color="#3b395f" stop-opacity="0"/><stop offset="1" stop-color="#3b395f"/></linearGradient><linearGradient id="f" gradientUnits="userSpaceOnUse" x1="100.216" x2="101.073" xlink:href="#e" y1="194.984" y2="208.191"/><linearGradient id="g" gradientUnits="userSpaceOnUse" x1="100.223" x2="101.115" xlink:href="#e" y1="186.762" y2="200.488"/><linearGradient id="h" gradientUnits="userSpaceOnUse" x1="100.222" x2="101.124" xlink:href="#e" y1="178.418" y2="192.3"/><linearGradient id="i" gradientUnits="userSpaceOnUse" x1="97.2655" x2="116.002" xlink:href="#e" y1="174.041" y2="233.336"/><linearGradient id="j" gradientUnits="userSpaceOnUse" x1="97.1996" x2="113.323" xlink:href="#e" y1="176.006" y2="227.029"/><linearGradient id="k" gradientUnits="userSpaceOnUse" x1="102.36" x2="94.6549" xlink:href="#e" y1="183.118" y2="148.171"/><linearGradient id="l" gradientUnits="userSpaceOnUse" x1="99.2792" x2="100.692" xlink:href="#c" y1="164.233" y2="176.385"/><linearGradient id="m" gradientUnits="userSpaceOnUse" x1="82.9423" x2="117.058" xlink:href="#a" y1="154.788" y2="154.788"/><linearGradient id="n" gradientUnits="userSpaceOnUse" x1="30.6506" x2="169.349" y1="82.6253" y2="82.6253"><stop offset="0" stop-color="#3fa9f5"/><stop offset="1" stop-color="#666ad6"/></linearGradient><linearGradient id="o" gradientUnits="userSpaceOnUse" x1="47.9722" x2="152.028" y1="79.8173" y2="79.8173"><stop offset="0" stop-color="#c4f8b6"/><stop offset="1" stop-color="#3b8eac"/></linearGradient><linearGradient id="p" gradientUnits="userSpaceOnUse" x1="67.5969" x2="132.404" y1="78.3076" y2="78.3076"><stop offset="0" stop-color="#ffe548"/><stop offset=".1758" stop-color="#ffde50"/><stop offset=".4446" stop-color="#ffca65"/><stop offset=".7709" stop-color="#ffaa87"/><stop offset="1" stop-color="#ff90a4"/></linearGradient><linearGradient id="q" gradientUnits="userSpaceOnUse" x1="86.3455" x2="113.655" y1="76.8714" y2="76.8714"><stop offset="0" stop-color="#ff4974"/><stop offset=".2231" stop-color="#fb3f6c"/><stop offset=".6075" stop-color="#f12357"/><stop offset="1" stop-color="#e4003d"/></linearGradient><linearGradient id="r" gradientUnits="userSpaceOnUse" x1="98.8709" x2="102.853" xlink:href="#a" y1="141.892" y2="156.075"/><clipPath id="s"><path d="m0 0h200v200h-200z"/></clipPath><g clip-path="url(#s)"><path d="m118.612 171.628h-37.2242v-5.918c0-3.477 2.8283-6.305 6.3043-6.305h24.6149c3.477 0 6.305 2.828 6.305 6.305zm-34.8344-2.39h32.4444v-3.528c0-2.159-1.756-3.915-3.915-3.915h-24.6149c-2.1584 0-3.9145 1.756-3.9145 3.915z" fill="url(#b)"/><path d="m111.973 200h-23.9463c-2.5682 0-4.7263-1.93-5.0122-4.482l-2.6635-23.777h39.298l-2.663 23.777c-.286 2.552-2.444 4.482-5.013 4.482z" fill="url(#d)"/><path d="m116.986 195.518.431-3.854h-34.8342l.4317 3.854c.2859 2.552 2.444 4.482 5.0122 4.482h23.9463c2.569 0 4.727-1.93 5.013-4.482z" fill="url(#f)"/><path d="m117.417 191.664.934-8.337h-36.702l.9337 8.337z" fill="url(#g)"/><path d="m118.351 183.327.934-8.336h-38.5701l.9341 8.336z" fill="url(#h)"/><path d="m110.448 200h-20.8963l-2.0062-28.259h24.9095z" fill="url(#i)"/><path d="m103.3 200h-6.6l-.6337-28.259h7.8677z" fill="url(#j)"/><path d="m80.351 171.741.3071 2.741 25.5189 25.518h5.796c2.569 0 4.727-1.93 5.013-4.482l2.663-23.777z" fill="url(#k)"/><path d="m117.661 174.816h-35.3218c-2.4208 0-4.3831-1.962-4.3831-4.383s1.9623-4.383 4.3831-4.383h35.3218c2.421 0 4.383 1.962 4.383 4.383s-1.962 4.383-4.383 4.383z" fill="url(#l)"/><path d="m113.827 161.795h-27.6545l-3.2305-14.014h34.115zm-25.6333-2.389h23.6123l2.426-9.235h-28.4646z" fill="url(#m)"/><path d="m110.836 12.1367c-7.203.82-14.4697.82-21.6721 0-19.5043-2.22039-58.5133-.9286-58.5133 44.9365 0 49.6948 37.789 60.6198 51.687 90.2008 1.8604 3.96 5.864 6.469 10.2396 6.469h7.4228 7.423c4.375 0 8.379-2.509 10.24-6.469 13.898-29.581 51.687-40.506 51.687-90.2008-.001-45.8651-39.01-47.15729-58.514-44.9365z" fill="url(#n)"/><path d="m108.129 6.54471c-5.389.85019-10.8694.85019-16.2584 0-14.6329-2.30824-43.8984-.9651-43.8984 46.71099 0 51.1093 27.7521 62.7683 38.4392 92.7913 1.6341 4.59 5.9266 7.695 10.7992 7.695h2.7894 2.789c4.873 0 9.166-3.105 10.8-7.695 10.687-30.023 38.439-41.682 38.439-92.7913 0-47.67609-29.266-49.01923-43.899-46.71099z" fill="url(#o)"/><path d="m105.063 3.53937c-3.325.85961-6.8003.85961-10.1257 0-9.1134-2.3553-27.3404-.9851-27.3404 47.66473 0 53.3769 18.1051 64.5859 24.3909 96.8749.6408 3.292 3.5357 5.664 6.8902 5.664h1.122 1.122c3.354 0 6.249-2.372 6.891-5.664 6.285-32.289 24.391-43.498 24.391-96.8749 0-48.64983-18.228-50.02042-27.341-47.66473z" fill="url(#p)"/><path d="m86.3455 40.3494c0 60.8086 8.0965 72.1286 10.5039 110.4266.1047 1.666 1.4812 2.966 3.1506 2.966 1.669 0 3.046-1.3 3.151-2.966 2.407-38.298 10.504-49.618 10.504-110.4266 0-53.7992-27.3095-53.7992-27.3095 0z" fill="url(#q)"/><path d="m100 143.619c-6.8981 0-13.2494.857-18.3251 2.294.2262.449.4474.902.6623 1.36 1.8604 3.96 5.8639 6.469 10.2396 6.469h4.6337 1.6671 1.1224 1.122 1.667 4.634c4.375 0 8.379-2.509 10.24-6.469.215-.458.436-.911.662-1.36-5.076-1.437-11.427-2.294-18.325-2.294z" fill="url(#r)"/></g></svg>