<svg width="46" height="46" viewBox="0 0 46 46" fill="none" xmlns="http://www.w3.org/2000/svg">
<circle cx="23" cy="23" r="22" stroke="#52575C" stroke-width="2"/>
<path d="M30.472 12.356C30.472 13.244 30.154 14.012 29.518 14.66C28.882 15.308 28.108 15.632 27.196 15.632C26.308 15.632 25.54 15.308 24.892 14.66C24.244 14.012 23.92 13.244 23.92 12.356C23.92 11.468 24.244 10.7 24.892 10.052C25.54 9.404 26.308 9.08 27.196 9.08C28.108 9.08 28.882 9.404 29.518 10.052C30.154 10.7 30.472 11.468 30.472 12.356ZM27.7 30.932C27.7 31.316 26.794 32.216 24.982 33.632C23.17 35.048 21.532 35.756 20.068 35.756C19.06 35.756 18.328 35.498 17.872 34.982C17.416 34.466 17.188 33.884 17.188 33.236C17.188 32.828 17.248 32.45 17.368 32.102C17.488 31.754 17.62 31.4 17.764 31.04L21.184 23.948C21.376 23.54 21.514 23.21 21.598 22.958C21.682 22.706 21.724 22.484 21.724 22.292C21.724 22.1 21.688 21.962 21.616 21.878C21.544 21.794 21.448 21.752 21.328 21.752C21.016 21.752 20.41 22.226 19.51 23.174C18.61 24.122 18.076 24.596 17.908 24.596C17.716 24.596 17.524 24.464 17.332 24.2C17.14 23.936 17.044 23.768 17.044 23.696C17.044 23.456 17.272 23.066 17.728 22.526C18.184 21.986 18.76 21.416 19.456 20.816C20.08 20.264 20.83 19.748 21.706 19.268C22.582 18.788 23.356 18.548 24.028 18.548C25.108 18.548 25.918 18.854 26.458 19.466C26.998 20.078 27.268 20.816 27.268 21.68C27.268 22.04 27.232 22.424 27.16 22.832C27.088 23.24 26.932 23.66 26.692 24.092L23.956 30.104C23.74 30.608 23.584 31.016 23.488 31.328C23.392 31.64 23.344 31.856 23.344 31.976C23.344 32.12 23.38 32.21 23.452 32.246C23.524 32.282 23.596 32.3 23.668 32.3C24.196 32.3 24.814 31.922 25.522 31.166C26.23 30.41 26.68 30.032 26.872 30.032C27.04 30.032 27.22 30.158 27.412 30.41C27.604 30.662 27.7 30.836 27.7 30.932Z" fill="#52575C"/>
</svg>
